# xmcd CD database file
#
# Track frame offsets:
#	150
#	20507
#	47827
#	68187
#
# Disc length: 1271 seconds
#
# Revision: 0
# Processed by: cddbd v1.5.1PL0 Copyright (c) Steve Scherf et al.
# Submitted via: CDex 1.51
#
DISCID=3004f504
DTITLE=堂島孝平 - ナイトグライダー
DYEAR=2005
DGENRE=Pop
TTITLE0=ナイトグライダー -TOKYO NIGHT GLIDING-
TTITLE1=R/P/M -Russia/Persia/Madagascar-
TTITLE2=ナイトグライダー -Instrumental-
TTITLE3=R/P/M -Instrumental-
EXTD=YEAR: 2005
EXTT0=
EXTT1=
EXTT2=
EXTT3=
PLAYORDER=
